<?xml version="1.0" standalone="no"?><!DOCTYPE svg PUBLIC "-//W3C//DTD SVG 1.1//EN" "http://www.w3.org/Graphics/SVG/1.1/DTD/svg11.dtd"><svg t="1520491574560" class="icon" style="" viewBox="0 0 1024 1024" version="1.1" xmlns="http://www.w3.org/2000/svg" p-id="2829" xmlns:xlink="http://www.w3.org/1999/xlink" width="200" height="200"><defs><style type="text/css"></style></defs><path d="M512 1024C229.696 1024 0 794.304 0 512S229.696 0 512 0C794.336 0 1024 229.696 1024 512S794.336 1024 512 1024zM943.808 582.08c-14.976-4.704-135.36-40.64-272.416-18.688 57.216 157.184 80.48 285.216 84.96 311.808C854.464 808.864 924.288 703.776 943.808 582.08zM682.816 915.232c-6.496-38.368-31.904-172.096-93.312-331.648-0.96 0.32-1.92 0.64-2.88 0.96-246.656 85.952-335.232 257.024-343.072 273.088 74.144 57.824 167.328 92.32 268.448 92.32C572.576 949.984 630.336 937.6 682.816 915.232zM187.104 805.088c9.92-16.96 129.92-215.68 355.488-288.608 5.696-1.856 11.456-3.584 17.248-5.216-10.976-24.832-22.944-49.728-35.456-74.208-218.4 65.344-430.336 62.624-449.472 62.24-0.128 4.448-0.224 8.896-0.224 13.376C74.656 624.992 117.248 727.552 187.104 805.088zM83.904 423.104c19.552 0.256 199.744 1.056 404.288-53.28-72.448-128.8-150.624-237.12-162.144-252.928C203.712 174.592 112.256 287.392 83.904 423.104zM409.504 87.488c12.096 16.192 91.52 124.352 163.168 256 155.52-58.272 221.344-146.784 229.216-157.984-77.216-68.512-178.784-110.208-289.888-110.208C476.704 75.328 442.4 79.584 409.504 87.488zM850.528 236.096c-9.216 12.48-82.496 106.432-244.192 172.448 10.176 20.832 19.936 42.016 29.024 63.36 3.232 7.552 6.368 15.072 9.408 22.56 145.504-18.304 290.112 11.04 304.512 14.08C948.32 405.312 911.424 310.528 850.528 236.096z" p-id="2830" fill="#999999"></path></svg>