<?xml version="1.0" standalone="no"?><!DOCTYPE svg PUBLIC "-//W3C//DTD SVG 1.1//EN" "http://www.w3.org/Graphics/SVG/1.1/DTD/svg11.dtd"><svg t="1520493022488" class="icon" style="" viewBox="0 0 1024 1024" version="1.1" xmlns="http://www.w3.org/2000/svg" p-id="2156" xmlns:xlink="http://www.w3.org/1999/xlink" width="200" height="200"><defs><style type="text/css"></style></defs><path d="M512 0c-282.784 0-512 229.216-512 512s229.216 512 512 512 512-229.216 512-512-229.216-512-512-512zM766.464 381.472c0.256 5.632 0.384 11.296 0.384 16.992 0 173.504-132.064 373.6-373.6 373.6-74.144 0-143.168-21.728-201.28-59.008 10.272 1.216 20.736 1.856 31.328 1.856 61.504 0 118.144-20.992 163.072-56.224-57.472-1.056-105.952-39.008-122.656-91.168 8.032 1.536 16.256 2.368 24.704 2.368 11.968 0 23.584-1.6 34.592-4.608-60.064-12.064-105.312-65.12-105.312-128.736 0-0.544 0-1.088 0-1.664 17.696 9.824 37.952 15.744 59.456 16.416-35.232-23.552-58.4-63.744-58.4-109.28 0-24.064 6.464-46.624 17.792-66.016 64.768 79.424 161.504 131.712 270.624 137.184-2.24-9.6-3.392-19.648-3.392-29.92 0-72.512 58.784-131.296 131.296-131.296 37.76 0 71.904 15.936 95.84 41.472 29.92-5.888 58.016-16.8 83.392-31.872-9.792 30.656-30.624 56.384-57.728 72.64 26.56-3.168 51.872-10.24 75.424-20.672-17.6 26.336-39.84 49.44-65.504 67.968z" p-id="2157" fill="#999999"></path></svg>