<?xml version="1.0" standalone="no"?><!DOCTYPE svg PUBLIC "-//W3C//DTD SVG 1.1//EN" "http://www.w3.org/Graphics/SVG/1.1/DTD/svg11.dtd"><svg t="1511512473200" class="icon" style="" viewBox="0 0 1024 1024" version="1.1" xmlns="http://www.w3.org/2000/svg" p-id="6250" xmlns:xlink="http://www.w3.org/1999/xlink" width="200" height="200"><defs><style type="text/css"></style></defs><path d="M189.642686 369.739972l200.434985 53.67241c2.855024 0.573051 5.136997 1.14508 7.429203 1.14508 12.555967 0 23.976064-8.56405 27.977191-21.703301 4.001127-14.849196-5.136997-30.833239-20.558222-34.834366l-200.434985-53.67241c-14.848173-4.001127-30.832216 5.136997-34.833343 19.98517C165.656389 349.753779 174.794513 365.737822 189.642686 369.739972L189.642686 369.739972zM189.642686 512.500397l200.434985 53.67241c2.855024 1.146103 5.136997 1.146103 7.429203 1.146103 12.555967 0 23.976064-8.565073 27.977191-21.131273 4.001127-15.421224-5.136997-30.832216-20.558222-34.833343l-200.434985-53.682643c-14.848173-4.563946-30.832216 4.574179-34.833343 19.995403C165.656389 493.079068 174.794513 508.499269 189.642686 512.500397L189.642686 512.500397zM189.642686 655.824663l200.434985 53.683666c2.855024 0.573051 5.136997 1.134847 7.429203 1.134847 12.555967 0 23.976064-8.565073 27.977191-21.694091 4.001127-14.848173-5.136997-30.842449-20.558222-34.833343l-200.434985-53.682643c-14.848173-3.989871-30.832216 5.14723-34.833343 19.98517C165.656389 635.840516 174.794513 651.834792 189.642686 655.824663L189.642686 655.824663zM958.841489 88.206948c-7.429203-5.136997-16.567327-6.845918-25.133424-4.563946L511.707846 196.135052 90.279654 83.644025c-8.565073-2.281973-17.703197-0.573051-25.122167 4.563946-6.856152 5.720282-10.847046 13.712303-10.847046 22.850427l0 686.392866c0 13.129019 8.565073 24.549116 21.12104 27.977191l429.429423 114.774023c2.281973 0.574075 4.564969 1.146103 6.845918 1.146103 2.855024 0 5.14723-0.573051 8.002254-1.146103l428.847162-114.774023c12.565177-3.428076 21.13025-14.848173 21.13025-27.977191L969.686489 111.058398C969.688535 101.919251 965.686385 93.927229 958.841489 88.206948L958.841489 88.206948zM483.157603 875.108948l-371.746676-99.363032 0-627.573225 371.746676 99.92585L483.157603 875.108948zM912.588049 775.745916l-371.756909 99.363032L540.83114 248.098541l371.756909-99.92585L912.588049 775.745916zM626.492102 424.557462c2.281973 0 5.13802-0.573051 7.41897-1.14508l200.434985-53.67241c14.848173-4.001127 23.986297-19.98517 19.995403-35.406394-4.001127-14.848173-19.995403-23.986297-34.833343-19.98517l-200.445218 53.67241c-15.412015 4.001127-24.549116 19.98517-19.98517 34.834366C602.505805 415.993412 613.924879 424.557462 626.492102 424.557462L626.492102 424.557462zM626.492102 567.319933c2.281973 0 5.13802 0 7.41897-1.146103l200.434985-53.67241c14.848173-4.001127 23.986297-19.421328 19.995403-34.833343-4.001127-15.421224-19.995403-24.559349-34.833343-19.995403l-200.445218 53.682643c-15.412015 4.001127-24.549116 19.412119-19.98517 34.833343C602.505805 558.75486 613.924879 567.319933 626.492102 567.319933L626.492102 567.319933zM626.492102 710.643176c2.281973 0 5.13802-0.562818 7.41897-1.134847l200.434985-53.683666c14.848173-3.989871 23.986297-19.984147 19.995403-35.406394-4.001127-14.83794-19.995403-23.976064-34.833343-19.98517l-200.445218 53.682643c-15.412015 3.990894-24.549116 19.98517-19.98517 34.833343C602.505805 702.078103 613.924879 710.643176 626.492102 710.643176z" p-id="6251" fill="#ffffff"></path></svg>