<?xml version="1.0" standalone="no"?><!DOCTYPE svg PUBLIC "-//W3C//DTD SVG 1.1//EN" "http://www.w3.org/Graphics/SVG/1.1/DTD/svg11.dtd"><svg t="1511512090692" class="icon" style="" viewBox="0 0 1024 1024" version="1.1" xmlns="http://www.w3.org/2000/svg" p-id="3193" xmlns:xlink="http://www.w3.org/1999/xlink" width="200" height="200"><defs><style type="text/css"></style></defs><path d="M947.243849 497.633804c0-239.98577-195.194634-435.244872-435.244872-435.244872-239.984746 0-435.243849 195.259102-435.243849 435.244872 0 115.978455 47.441499 227.941456 129.957841 309.424258-9.060353 15.277962-14.626115 32.94432-14.626115 51.90516 0 56.69628 46.016033 102.645798 102.645798 102.645798 36.890188 0 69.054749-19.735483 87.11201-48.992831 42.198078 13.140275 85.888136 20.260439 130.091894 20.260439 46.923706 0 92.873224-7.703449 137.012514-22.457478 17.795295 30.480198 50.479695 51.189869 88.342024 51.189869 56.567343 0 102.645798-45.950542 102.645798-102.645798 0-21.098527-6.473435-40.836057-17.538445-57.144488C902.779148 719.882608 947.243849 612.639095 947.243849 497.633804L947.243849 497.633804zM294.79712 934.364517c-41.615816 0-75.399247-33.784454-75.399247-75.464739 0-17.923208 6.601348-34.233686 17.089214-47.179532 2.716878-3.362584 5.629207-6.339382 8.671497-9.124821 1.293459-1.228991 2.650363-2.266623 4.013407-3.367701 2.843768-2.13257 5.822612-4.072759 8.928347-5.820566 1.747807-0.973164 3.432169-1.940189 5.179976-2.784416 3.298116-1.486864 6.665817-2.65241 10.161431-3.689019 1.683339-0.517793 3.362584-1.230014 5.110391-1.61887 5.307889-1.165546 10.744715-1.812275 16.309454-1.812275 41.551348 0 75.399247 33.784454 75.399247 75.335802 0 5.435803-0.582261 10.615779-1.683339 15.855106-0.25685 1.234107-0.774643 2.137687-1.031493 3.367701-1.101077 3.949962-2.331092 7.831362-4.01443 11.711739C351.557868 915.985938 325.346903 934.364517 294.79712 934.364517L294.79712 934.364517zM638.20333 885.633652c-78.766948 25.626657-165.232229 26.535353-245.031693 2.197038 0.582261-1.614777 0.775666-3.496637 1.165546-5.174859 0.455371-1.746784 0.908696-3.495614 1.165546-5.243421 1.165546-6.083555 1.876744-12.167111 1.876744-18.378579 0-56.631812-46.016033-102.58133-102.582353-102.58133-6.986111 0-13.785981 0.645706-20.452821 2.003634-1.683339 0.390903-3.298116 1.037632-4.981455 1.422396-4.853541 1.364067-9.643638 2.524496-14.171768 4.405333-2.073218 0.903579-3.885494 2.13257-5.954619 3.105734-3.885494 1.940189-7.766894 3.815909-11.390421 6.211469-3.239787 2.137687-6.148024 4.853541-9.124821 7.377014-1.876744 1.554402-3.949962 2.913353-5.698792 4.597715-76.885088-77.019141-119.084189-178.756243-119.084189-288.004413 0-224.969774 183.027523-407.93283 407.997298-407.93283 225.033219 0 407.996275 183.027523 407.996275 407.93283 0 107.173928-40.839127 207.488635-115.266233 284.054451-1.620917-1.422396-3.496637-2.460028-5.244444-3.882424-2.459005-1.811252-4.789073-3.689019-7.377014-5.243421-2.848884-1.876744-5.954619-3.427052-9.060353-4.982478-2.65548-1.357927-5.115508-2.719948-7.766894-3.815909-3.689019-1.427512-7.377014-2.39556-11.135618-3.432169-2.394537-0.710175-4.78498-1.554402-7.248078-2.004657-6.404873-1.298576-12.878309-1.945305-19.479657-1.945305-56.69628 0-102.645798 45.956681-102.645798 102.58133 0 6.281053 0.645706 12.364609 1.811252 18.448164 0.261966 1.357927 0.582261 2.848884 0.774643 4.27128C637.685537 883.040594 637.814474 884.403638 638.20333 885.633652L638.20333 885.633652zM737.354538 934.364517c-31.19242 0-57.988716-18.960841-69.51012-46.016033-1.164522-2.848884-1.811252-5.756097-2.650363-8.670473-1.876744-6.66684-3.304256-13.464663-3.304256-20.714787 0-41.546232 33.848922-75.394131 75.464739-75.394131 5.307889 0 10.615779 0.645706 15.72617 1.678222 1.230014 0.326435 2.266623 0.844228 3.496637 1.165546 3.815909 0.972141 7.574512 2.137687 11.326976 3.751441 1.357927 0.716314 2.650363 1.556449 4.009314 2.203178 3.238764 1.683339 6.344498 3.495614 9.321296 5.564739 1.358951 0.972141 2.65241 2.137687 3.946892 3.238764 2.719948 2.261507 5.307889 4.592598 7.701402 7.184633 12.231579 13.396101 19.934005 31.063483 19.934005 50.606585C812.689317 900.579039 778.905886 934.364517 737.354538 934.364517L737.354538 934.364517zM737.354538 934.364517" p-id="3194" fill="#ffffff"></path><path d="M694.770673 618.402355c-4.789073-5.892197-13.267165-6.794753-19.222807-2.13871-0.774643 0.582261-74.753541 58.572-174.1002 58.572-97.466845 0-150.992923-56.562227-151.510716-57.208956-5.110391-5.500271-13.716396-5.954619-19.21769-0.779759-5.569856 5.051039-5.954619 13.5936-0.844228 19.158339 2.460028 2.784416 61.613266 66.083068 171.572634 66.083068 108.797915 0 187.753151-61.939701 191.120852-64.591087C698.458669 632.770598 699.42774 624.228037 694.770673 618.402355L694.770673 618.402355zM694.770673 618.402355" p-id="3195" fill="#ffffff"></path><path d="M414.854473 330.461387c-11.777231-11.712763-25.825179-17.538445-42.327014-17.538445-9.252735 0-17.800411 1.940189-25.696242 5.825682-8.087189 3.880377-14.881942 6.730285-20.580734 13.396101-5.501294-6.731308-12.231579-9.515724-20.2543-13.396101-8.093329-3.885494-16.763802-5.825682-25.954115-5.825682-16.442484 0-30.549783 5.825682-42.261523 17.538445-11.717879 11.711739-17.538445 25.696242-17.538445 42.197054 0 9.18929 1.940189 17.795295 5.820566 25.889647 3.885494 8.022721 9.257851 14.881942 15.989159 20.580734l48.666396 40.707121 35.595706 36.95875 36.632315-37.476543 52.616358-44.657082c11.135618-11.777231 16.699334-25.691125 16.699334-42.001603C432.328449 356.221074 426.438299 342.108658 414.854473 330.461387L414.854473 330.461387zM414.854473 330.461387" p-id="3196" fill="#ffffff"></path><path d="M786.2829 330.461387c-11.777231-11.712763-25.755594-17.538445-42.262546-17.538445-9.252735 0-17.730826 1.940189-25.691125 5.825682-8.092305 3.880377-14.823614 6.730285-20.517289 13.459546-5.500271-6.730285-12.234649-9.514701-20.259416-13.459546-8.087189-3.885494-16.763802-5.825682-25.888624-5.825682-16.438391 0-30.609135 5.825682-42.262546 17.538445-11.648294 11.711739-17.667382 25.696242-17.667382 42.197054 0 9.18929 1.876744 17.795295 5.827729 25.889647 3.944845 8.022721 9.252735 14.881942 15.919575 20.580734l48.670489 40.707121 35.660174 36.95875 36.629245-37.476543 52.621475-44.657082c11.130502-11.777231 16.694217-25.691125 16.694217-42.001603C803.756877 356.221074 797.935288 342.108658 786.2829 330.461387L786.2829 330.461387zM786.2829 330.461387" p-id="3197" fill="#ffffff"></path></svg>